PathFileType	4	(X/Y/Z)	/Users/itak/Documents/Research/Walk-IL/dataset/trc/00359_00011.trc
DataRate	CameraRate	NumFrames	NumMarkers	Units	OrigDataRate	OrigDataStartFrame	OrigNumFrames
100.000000	100.000000	4	60	mm	100.000000	74	596
Frame#	Time	RPSI			LPSI			L3			STRN			T10			C7			CLAV			RBAK			LBAK			LSHO			LUPA			LAEL			LAOL			LWPS			LFRA			LHPS			LHTS			RSHO			RUPA			RAEL			RAOL			RWTS			RFRA			RIFD			RHTS			RBHD			LFHD			RFHD			LBHD			RHIP			RASI			LASI			LKNE			LTHI			LANK			LTIP			LTOE			LMT1			LMT5			LHEE			RKNE			RTHI			RANK			RTIP			RTOE			RMT1			RMT5			LWTS			LIFD			RWPS			LHIP			RHEE			RHPS			*53			*54			*55			*56			*57			*58			*59			
		X1	Y1	Z1	X2	Y2	Z2	X3	Y3	Z3	X4	Y4	Z4	X5	Y5	Z5	X6	Y6	Z6	X7	Y7	Z7	X8	Y8	Z8	X9	Y9	Z9	X10	Y10	Z10	X11	Y11	Z11	X12	Y12	Z12	X13	Y13	Z13	X14	Y14	Z14	X15	Y15	Z15	X16	Y16	Z16	X17	Y17	Z17	X18	Y18	Z18	X19	Y19	Z19	X20	Y20	Z20	X21	Y21	Z21	X22	Y22	Z22	X23	Y23	Z23	X24	Y24	Z24	X25	Y25	Z25	X26	Y26	Z26	X27	Y27	Z27	X28	Y28	Z28	X29	Y29	Z29	X30	Y30	Z30	X31	Y31	Z31	X32	Y32	Z32	X33	Y33	Z33	X34	Y34	Z34	X35	Y35	Z35	X36	Y36	Z36	X37	Y37	Z37	X38	Y38	Z38	X39	Y39	Z39	X40	Y40	Z40	X41	Y41	Z41	X42	Y42	Z42	X43	Y43	Z43	X44	Y44	Z44	X45	Y45	Z45	X46	Y46	Z46	X47	Y47	Z47	X48	Y48	Z48	X49	Y49	Z49	X50	Y50	Z50	X51	Y51	Z51	X52	Y52	Z52	X53	Y53	Z53	X54	Y54	Z54	X55	Y55	Z55	X56	Y56	Z56	X57	Y57	Z57	X58	Y58	Z58	X59	Y59	Z59	X60	Y60	Z60	

75	0.74	-1381.090454101562	984.0990600585938	785.0044555664062	-1377.030517578125	981.1986694335938	657.150146484375	-1380.873901367188	1031.102294921875	724.9791259765625	-1165.866088867188	1226.08349609375	714.6715698242188	-1399.959350585938	1150.21875	713.0669555664062	-1370.085571289062	1400.329467773438	694.2890014648438	-1212.20068359375	1350.835327148438	706.3604125976562	-1414.433715820312	1260.849853515625	763.1181030273438	-1375.773803710938	1360.072387695312	592.37451171875	-1288.773071289062	1379.014404296875	537.6317138671875	-1299.355224609375	1255.189331054688	474.9880981445312	-1274.710815429688	1051.425537109375	472.3240661621094	-1340.319946289062	1037.2529296875	524.0306396484375	-1208.771484375	800.4201049804688	476.3948059082031	-1254.733154296875	947.7432250976562	471.0015869140625	-1210.68212890625	732.1728515625	483.9244995117188	-1159.091674804688	739.6961059570312	521.7921752929688	-1319.309936523438	1392.451171875	862.1702880859375	-1329.401733398438	1325.977416992188	925.2689819335938	-1308.508666992188	1057.980346679688	959.2088012695312	-1347.761352539062	1049.316162109375	873.1707763671875	-1182.018920898438	838.1856689453125	912.531494140625	-1278.962890625	991.6600952148438	966.6734008789062	-1157.575439453125	665.7239990234375	919.1903076171875	-1148.769653320312	741.245849609375	926.18017578125	-1346.006225585938	1601.616577148438	771.7702026367188	-1170.867065429688	1634.906982421875	662.8812866210938	-1187.037963867188	1637.2841796875	762.2598876953125	-1347.929077148438	1589.266479492188	627.1674194335938	-1308.073608398438	935.0838623046875	899.5621337890625	-1199.4140625	958.0369262695312	857.0328369140625	-1168.039306640625	948.4840698242188	619.9286499023438	-1268.416625976562	467.191162109375	557.1528930664062	-1255.37841796875	604.136962890625	552.9576416015625	-1343.405395507812	50.71057510375977	554.4099731445312	-1307.871337890625	252.1578674316406	543.500244140625	-1140.423461914062	46.74557495117188	622.1292114257812	-1211.16552734375	32.62240982055664	659.8834838867188	-1216.089111328125	47.78056716918945	546.9036254882812	-1380.156494140625	45.48362350463867	619.947998046875	-1285.029663085938	469.3740844726562	906.7825927734375	-1246.055786132812	733.780029296875	926.4598388671875	-1351.342041015625	52.39284133911133	909.5916137695312	-1282.37109375	350.5631103515625	906.3280029296875	-1154.745727539062	50.17268753051758	870.047607421875	-1206.721313476562	45.46095275878906	825.6570434570312	-1250.959838867188	39.64129257202148	934.4298095703125	-1173.949462890625	815.19482421875	535.1546630859375	-1158.200073242188	653.8427124023438	536.3079833984375	-1222.1162109375	817.8672485351562	974.977783203125	-1290.242431640625	922.0165405273438	555.0526123046875	-1380.6650390625	26.91934776306152	885.3661499023438	-1201.9970703125	736.072265625	971.2548828125	nan	nan	nan	nan	nan	nan	nan	nan	nan	nan	nan	nan	nan	nan	nan	nan	nan	nan	nan	nan	nan	
76	0.75	-1380.735107421875	984.0243530273438	785.0138549804688	-1376.75732421875	981.1566772460938	657.1575927734375	-1380.536865234375	1031.158203125	725.1106567382812	-1165.217651367188	1226.055297851562	714.6098022460938	-1399.580810546875	1150.236938476562	713.1926879882812	-1369.580688476562	1400.333251953125	694.3771362304688	-1211.678466796875	1350.830322265625	706.27587890625	-1413.949951171875	1260.9091796875	763.2200927734375	-1375.325317382812	1360.05224609375	592.4224853515625	-1288.455810546875	1378.999267578125	537.570068359375	-1299.167114257812	1255.158935546875	474.9779357910156	-1274.469848632812	1051.4072265625	472.3443603515625	-1340.049194335938	1037.261596679688	524.135498046875	-1208.60791015625	800.3809814453125	476.392578125	-1254.457153320312	947.6663208007812	471.0746154785156	-1210.389526367188	732.1138305664062	483.9657897949219	-1158.758178710938	739.6597290039062	521.7623901367188	-1318.69580078125	1392.468505859375	862.1831665039062	-1328.792846679688	1325.958984375	925.319091796875	-1307.967407226562	1058.076049804688	959.30810546875	-1347.312133789062	1049.369995117188	873.3575439453125	-1181.536865234375	838.1688842773438	912.4632568359375	-1278.421264648438	991.6546630859375	966.7244262695312	-1157.227416992188	665.7402954101562	919.2548828125	-1148.329833984375	741.2302856445312	926.2791748046875	-1345.372314453125	1601.632690429688	771.805908203125	-1170.254272460938	1634.829833984375	662.9190063476562	-1186.437133789062	1637.272583007812	762.279052734375	-1347.489990234375	1589.379760742188	627.1571655273438	-1307.98095703125	935.0158081054688	899.5697631835938	-1199.314208984375	957.9302368164062	857.029541015625	-1167.787475585938	948.4926147460938	619.9136352539062	-1268.259643554688	467.1560974121094	557.2239379882812	-1255.214965820312	604.1580810546875	552.9417114257812	-1343.408203125	50.71303558349609	554.4187622070312	-1307.736206054688	252.1256256103516	543.6070556640625	-1140.42431640625	46.74594116210938	622.1305541992188	-1211.164794921875	32.62175750732422	659.88427734375	-1216.075317382812	47.75988006591797	546.9156494140625	-1380.1513671875	45.48148727416992	619.9547729492188	-1284.850708007812	469.3674621582031	906.7905883789062	-1245.941040039062	733.7910766601562	926.5098266601562	-1351.34130859375	52.41681289672852	909.5719604492188	-1282.270141601562	350.5283203125	906.2921142578125	-1154.7451171875	50.10513305664062	869.9985961914062	-1206.8095703125	45.30521774291992	825.5905151367188	-1250.939086914062	39.62941741943359	934.4225463867188	-1173.735229492188	815.1556396484375	535.1970825195312	-1158.1123046875	653.7225952148438	536.3294677734375	-1221.7822265625	817.84716796875	975.111572265625	-1289.932983398438	921.97509765625	555.07861328125	-1380.71435546875	26.99201202392578	885.3280639648438	-1201.59423828125	736.017578125	971.1915893554688	nan	nan	nan	nan	nan	nan	nan	nan	nan	nan	nan	nan	nan	nan	nan	nan	nan	nan	nan	nan	nan	
77	0.76	-1380.356079101562	983.9390869140625	785.0327758789062	-1376.455810546875	981.1088256835938	657.1574096679688	-1380.187622070312	1031.210693359375	725.2405395507812	-1164.601196289062	1226.047729492188	714.5405883789062	-1399.187622070312	1150.254516601562	713.3317260742188	-1369.05810546875	1400.347534179688	694.46923828125	-1211.152587890625	1350.837036132812	706.208251953125	-1413.443603515625	1260.979370117188	763.3268432617188	-1374.840576171875	1360.032836914062	592.48828125	-1288.108154296875	1378.993896484375	537.5170288085938	-1298.946899414062	1255.141723632812	474.9502563476562	-1274.186767578125	1051.399658203125	472.359375	-1339.750366210938	1037.290283203125	524.2533569335938	-1208.426513671875	800.330322265625	476.3874206542969	-1254.164428710938	947.5812377929688	471.1568603515625	-1210.098388671875	732.0353393554688	484.0254211425781	-1158.458740234375	739.6092529296875	521.7560424804688	-1318.081298828125	1392.481689453125	862.207763671875	-1328.1884765625	1325.929565429688	925.37109375	-1307.384643554688	1058.1357421875	959.405517578125	-1346.8388671875	1049.404541015625	873.5477294921875	-1181.081787109375	838.142578125	912.3827514648438	-1277.89404296875	991.63671875	966.767822265625	-1156.808715820312	665.77783203125	919.339599609375	-1147.90380859375	741.257568359375	926.4280395507812	-1344.715698242188	1601.660888671875	771.828857421875	-1169.603271484375	1634.74658203125	662.9423828125	-1185.8212890625	1637.27001953125	762.2947387695312	-1347.037841796875	1589.472290039062	627.1471557617188	-1307.818359375	934.9647827148438	899.5897216796875	-1199.145385742188	957.8402099609375	857.0385131835938	-1167.511962890625	948.5072631835938	619.8849487304688	-1268.107055664062	467.1200866699219	557.2989501953125	-1255.052978515625	604.1767578125	552.9239501953125	-1343.412231445312	50.71765899658203	554.4278564453125	-1307.617431640625	252.1043853759766	543.6984252929688	-1140.42529296875	46.74429702758789	622.1323852539062	-1211.163696289062	32.62211990356445	659.8848266601562	-1216.062133789062	47.74301910400391	546.92626953125	-1380.144409179688	45.48178482055664	619.9622192382812	-1284.7138671875	469.3554382324219	906.7833251953125	-1245.864990234375	733.8756103515625	926.6217041015625	-1351.331420898438	52.44661331176758	909.5499877929688	-1282.196044921875	350.5071716308594	906.2623291015625	-1154.734130859375	50.01008224487305	869.9437255859375	-1206.874145507812	45.11523056030273	825.5005493164062	-1250.912109375	39.61377334594727	934.4129028320312	-1173.518188476562	815.1142578125	535.241943359375	-1157.97265625	653.6368408203125	536.2955322265625	-1221.46923828125	817.8132934570312	975.2312622070312	-1289.626708984375	921.9600219726562	555.096435546875	-1380.7783203125	27.08809089660645	885.28271484375	-1201.18310546875	735.9638671875	971.15673828125	nan	nan	nan	nan	nan	nan	nan	nan	nan	nan	nan	nan	nan	nan	nan	nan	nan	nan	nan	nan	nan	
78	0.77	-1379.963623046875	983.8488159179688	785.0704345703125	-1376.119995117188	981.0542602539062	657.1592407226562	-1379.82568359375	1031.260620117188	725.3617553710938	-1164.030883789062	1226.055297851562	714.461181640625	-1398.77880859375	1150.277099609375	713.4774780273438	-1368.526611328125	1400.376831054688	694.5616455078125	-1210.625122070312	1350.846557617188	706.16064453125	-1412.922729492188	1261.061645507812	763.4390869140625	-1374.325927734375	1360.015869140625	592.5723876953125	-1287.719482421875	1378.993774414062	537.4825439453125	-1298.682739257812	1255.13623046875	474.9098510742188	-1273.864868164062	1051.39990234375	472.3695068359375	-1339.427856445312	1037.340209960938	524.3795166015625	-1208.225219726562	800.2699584960938	476.3801879882812	-1253.863403320312	947.4893798828125	471.24658203125	-1209.817993164062	731.9339599609375	484.0976257324219	-1158.196166992188	739.5491943359375	521.774658203125	-1317.469848632812	1392.492919921875	862.2535400390625	-1327.581665039062	1325.896118164062	925.4251708984375	-1306.764770507812	1058.152709960938	959.4978637695312	-1346.349609375	1049.42138671875	873.7246704101562	-1180.661743164062	838.1087036132812	912.2942504882812	-1277.383544921875	991.6092529296875	966.8108520507812	-1156.338989257812	665.8294067382812	919.4351196289062	-1147.505004882812	741.3170166015625	926.6007690429688	-1344.04248046875	1601.708618164062	771.8468017578125	-1168.931274414062	1634.660766601562	662.9473266601562	-1185.18359375	1637.2724609375	762.3025512695312	-1346.553344726562	1589.541137695312	627.1482543945312	-1307.569458007812	934.9385375976562	899.632568359375	-1198.89013671875	957.7747192382812	857.0704956054688	-1167.214599609375	948.5222778320312	619.8479614257812	-1267.961059570312	467.0838928222656	557.3761596679688	-1254.890625	604.1923217773438	552.90673828125	-1343.417236328125	50.72478103637695	554.4367065429688	-1307.52392578125	252.1023712158203	543.7649536132812	-1140.425903320312	46.73938751220703	622.1350708007812	-1211.162841796875	32.62343597412109	659.8849487304688	-1216.05029296875	47.73138427734375	546.93505859375	-1380.135620117188	45.48526763916016	619.969970703125	-1284.610595703125	469.337646484375	906.7590942382812	-1245.800170898438	734.0180053710938	926.7808837890625	-1351.310180664062	52.48488998413086	909.5233764648438	-1282.1484375	350.4991455078125	906.2413940429688	-1154.711547851562	49.87991333007812	869.8829345703125	-1206.90380859375	44.90733337402344	825.390625	-1250.879760742188	39.59461212158203	934.3993530273438	-1173.298828125	815.06689453125	535.2925415039062	-1157.784301757812	653.5840454101562	536.2169189453125	-1221.16259765625	817.7660522460938	975.3263549804688	-1289.321899414062	921.9716796875	555.1142578125	-1380.85107421875	27.20908164978027	885.2280883789062	-1200.778198242188	735.9193115234375	971.1603393554688	nan	nan	nan	nan	nan	nan	nan	nan	nan	nan	nan	nan	nan	nan	nan	nan	nan	nan	nan	nan	nan	
